# xmcd
#
# Track frame offsets:
#	150
#	9278
#	26737
#	39119
#	59721
#	66905
#	78971
#	90962
#	104711
#	114323
#	128773
#	143020
#
# Disc length: 2098 seconds
#
# Revision: 0
# Processed by: cddbd v1.5.1PL2 Copyright (c) Steve Scherf et al.
# Submitted via: dBpowerAMP V4.0
#
DISCID=9308300c
DTITLE=Flying J Wranglers - Full Stride
DYEAR=1900
DGENRE=Country
TTITLE0=Cimarron
TTITLE1=Cool Water
TTITLE2=Ghostriders
TTITLE3=Call Me A Wanderer
TTITLE4=Lonesome Fiddle Blues
TTITLE5=Mariah
TTITLE6=Shenandoah
TTITLE7=Yodeling Farmer's Song
TTITLE8=Black Mountain Dog
TTITLE9=Red Wing
TTITLE10=Ridin' Down The Canyon
TTITLE11=Mystery Of His Way
EXTD=
EXTT0=
EXTT1=
EXTT2=
EXTT3=
EXTT4=
EXTT5=
EXTT6=
EXTT7=
EXTT8=
EXTT9=
EXTT10=
EXTT11=
PLAYORDER=
